<svg xmlns="http://www.w3.org/2000/svg" xmlns:xlink="http://www.w3.org/1999/xlink" viewBox="0 0 73.56 29.94"><defs><linearGradient id="linear-gradient" x1="14.26" y1="3.39" x2="42.41" y2="30.65" gradientUnits="userSpaceOnUse"><stop offset="0" stop-color="#79f7ff"/><stop offset="1" stop-color="#6584d4"/></linearGradient></defs><g id="Layer_2" data-name="Layer 2"><g id="Layer_1-2" data-name="Layer 1"><text transform="matrix(0.98, 0, -0.18, 0.98, 1, 23.27)" style="font-size:17.00284767150879px;fill:#6584d4;stroke:#6584d4;stroke-miterlimit:10;stroke-width:0.5px;font-family:FuturaBT-MediumItalic, Futura Md BT;font-weight:500;font-style:italic">Blue</text><text transform="matrix(0.98, 0, -0.18, 0.98, 41.18, 23.27)" style="font-size:17.00284767150879px;fill:#6584d4;stroke:#6584d4;stroke-miterlimit:10;stroke-width:0.5px;font-family:FuturaBT-MediumItalic, Futura Md BT;font-weight:500;font-style:italic">Bird</text><path d="M45.35,0a14.71,14.71,0,0,0-.94,2.27,31.88,31.88,0,0,1-2.35,5.92c-.31.69-.65,1.36-1,2.05a19.2,19.2,0,0,1-2,3.44,28.67,28.67,0,0,0-3.19,5.69,29.37,29.37,0,0,1-2.61,5.27,8.79,8.79,0,0,1-4.52.63,18.86,18.86,0,0,0-4.5.28c-1.85.32-3.64,1-5.47,1.34s-4,.69-5.94,1-4.12.61-6.18.93a1.33,1.33,0,0,0-.55.21,29,29,0,0,0,7-.08c2.31-.4,4.63-.75,6.93-1.17,3-.55,6-1.39,9.16-1.19l.68.06-4,2.07a3.65,3.65,0,0,0,2.49-.19c.84-.25,1.63-.62,2.58-1l1.1,1.25a19.77,19.77,0,0,0,3.12.77,20.45,20.45,0,0,0,3.28-.19c.37,0,.8,1,1,.38.18-.42-.4-1.19-.69-1.42a.76.76,0,0,1-.2-.2.66.66,0,0,1-.05-.37c.05-1-.56-1.51-.9-2.37a4,4,0,0,1-.06-2.69,27.66,27.66,0,0,1,2.72-6.05,19.45,19.45,0,0,0,1.85-3.41c.92-2.68,2.34-5.17,3-8C45.54,3.56,46,1.86,45.35,0Z" style="fill:url(#linear-gradient)"/></g></g></svg>